<?xml version="1.0" encoding="utf-8"?>
<!-- Generator: Adobe Illustrator 23.0.1, SVG Export Plug-In . SVG Version: 6.00 Build 0)  -->
<svg version="1.1" id="Layer_1" xmlns="http://www.w3.org/2000/svg" xmlns:xlink="http://www.w3.org/1999/xlink" x="0px" y="0px"
	 viewBox="0 0 20 20" style="enable-background:new 0 0 20 20;width:16px;height:16px;" xml:space="preserve">
<style type="text/css">
	.st0,path,polygon{fill:#ccc;}
</style>
<g>
	<polygon points="2.93,14.24 2.22,16.36 3.64,17.78 5.76,17.07 12.12,10.71 9.29,7.88 	"/>
	<path d="M15.66,8.59l-0.71-0.71l2.83-2.83c0.39-0.39,0.39-1.02,0-1.41l-1.41-1.41c-0.39-0.39-1.02-0.39-1.41,0l-2.83,2.83
		l-0.71-0.71c-0.39-0.39-1.02-0.39-1.41,0c-0.39,0.39-0.39,1.02,0,1.41L14.24,10c0.39,0.39,1.02,0.39,1.41,0
		C16.05,9.61,16.05,8.98,15.66,8.59z"/>
</g>
</svg>
