<?xml version="1.0" encoding="utf-8"?>
<!-- Generator: Adobe Illustrator 23.0.1, SVG Export Plug-In . SVG Version: 6.00 Build 0)  -->
<svg version="1.1" id="Layer_1" xmlns="http://www.w3.org/2000/svg" xmlns:xlink="http://www.w3.org/1999/xlink" x="0px" y="0px"
	 viewBox="0 0 20 20" style="enable-background:new 0 0 20 20; width:20px;height:20px;" xml:space="preserve">
<style type="text/css">
	.st0{fill:#999;}
</style>
<path class="st0" d="M1,3h7v7L4.88,6.88C4.31,7.81,4,8.88,4,10c0,3.31,2.69,6,6,6s6-2.69,6-6c0-1.6-0.62-3.11-1.76-4.24
	c-0.39-0.39-0.39-1.02,0-1.41s1.02-0.39,1.41,0C17.17,5.85,18,7.86,18,10c0,4.41-3.59,8-8,8s-8-3.59-8-8c0-1.65,0.51-3.23,1.44-4.56
	L1,3z"/>
</svg>
