<?xml version="1.0" encoding="utf-8"?>
<!-- Generator: Adobe Illustrator 23.0.1, SVG Export Plug-In . SVG Version: 6.00 Build 0)  -->
<svg version="1.1" id="Layer_1" xmlns="http://www.w3.org/2000/svg" xmlns:xlink="http://www.w3.org/1999/xlink" x="0px" y="0px"
	 viewBox="0 0 20 20" style="enable-background:new 0 0 20 20;fill:#c8323c;" xml:space="preserve">
<path d="M9,5c0-0.55,0.45-1,1-1s1,0.45,1,1v5c0,0.55-0.45,1-1,1s-1-0.45-1-1V5z M16,10c0-1.6-0.62-3.11-1.76-4.24
	c-0.39-0.39-1.03-0.39-1.41,0c-0.39,0.39-0.39,1.02,0,1.41C13.58,7.93,14,8.93,14,10c0,2.21-1.79,4-4,4s-4-1.79-4-4
	c0-1.07,0.42-2.07,1.17-2.83c0.39-0.39,0.39-1.02,0-1.41c-0.39-0.39-1.02-0.39-1.41,0C4.62,6.89,4,8.4,4,10c0,3.31,2.69,6,6,6
	S16,13.31,16,10z"/>
</svg>
