<?xml version="1.0" encoding="utf-8"?>
<!-- Generator: Adobe Illustrator 23.0.1, SVG Export Plug-In . SVG Version: 6.00 Build 0)  -->
<svg version="1.1" id="Layer_1" xmlns="http://www.w3.org/2000/svg" xmlns:xlink="http://www.w3.org/1999/xlink" x="0px" y="0px"
	 viewBox="0 0 20 20" style="enable-background:new 0 0 20 20; width:20px;height:20px;" xml:space="preserve">
<style type="text/css">
	.st0{fill:#ccc;}
</style>
<g>
	<path class="st0" d="M17,8V3.98C17,2.89,16.11,2,15.02,2H7L3,5v3h1v3H3v5.02C3,17.11,3.89,18,4.98,18h10.04
		c1.09,0,1.98-0.89,1.98-1.98V11h-1V8H17z M7,8H6V5h1V8z M9,8H8V4h1V8z M11,8h-1V4h1V8z M13,8h-1V4h1V8z M15,8h-1V4h1V8z"/>
</g>
</svg>
