<?xml version="1.0" encoding="utf-8"?>
<!-- Generator: Adobe Illustrator 23.0.1, SVG Export Plug-In . SVG Version: 6.00 Build 0)  -->
<svg version="1.1" id="Layer_1" xmlns="http://www.w3.org/2000/svg" xmlns:xlink="http://www.w3.org/1999/xlink" x="0px" y="0px"
	 viewBox="0 0 20 20" style="width:20px;height:20px;enable-background:new 0 0 20 20;" xml:space="preserve">
<style type="text/css">
	.st0{fill:#999;}
</style>
<path class="st0" d="M20,10c0,4.97-4.03,9-9,9v-2c3.86,0,7-3.14,7-7s-3.14-7-7-7V1C15.97,1,20,5.03,20,10z M11,5v2
	c1.65,0,3,1.35,3,3s-1.35,3-3,3v2c2.76,0,5-2.24,5-5S13.76,5,11,5z M11,9v2c0.55,0,1-0.45,1-1C12,9.45,11.55,9,11,9z M8,3
	C7.77,3,7.57,3.09,7.4,3.22L4,6H0.98C0.43,6,0,6.45,0,7v6c0,0.55,0.44,1,0.99,1H4l3.4,2.78C7.57,16.91,7.77,17,8,17
	c0.55,0,1-0.45,1-1V4C9,3.45,8.55,3,8,3z"/>
</svg>
