<?xml version="1.0" encoding="utf-8"?>
<!-- Generator: Adobe Illustrator 23.0.1, SVG Export Plug-In . SVG Version: 6.00 Build 0)  -->
<svg version="1.1" id="Layer_1" xmlns="http://www.w3.org/2000/svg" xmlns:xlink="http://www.w3.org/1999/xlink" x="0px" y="0px"
	 viewBox="0 0 20 20" style="enable-background:new 0 0 20 20;" xml:space="preserve">
<path d="M18,3h-1V2c0-0.55-0.45-1-1-1h-4c-0.55,0-1,0.45-1,1v1h-1C9.45,3,9,3.45,9,4v14c0,0.55,0.45,1,1,1h8c0.55,0,1-0.45,1-1V4
	C19,3.45,18.55,3,18,3z M17,17h-6V5h6V17z M7,3l-6,7v1l3,1l-3,7l6-7v-1l-3-1L7,3z"/>
</svg>
