<?xml version="1.0" encoding="utf-8"?>
<!-- Generator: Adobe Illustrator 23.0.1, SVG Export Plug-In . SVG Version: 6.00 Build 0)  -->
<svg version="1.1" id="Layer_1" xmlns="http://www.w3.org/2000/svg" xmlns:xlink="http://www.w3.org/1999/xlink" x="0px" y="0px"
	 viewBox="0 0 20 20" style="width:20px;height:20px;enable-background:new 0 0 20 20;" xml:space="preserve">
<style type="text/css">
	.st0{fill:#999;}
</style>
<path class="st0" d="M11,8c1.1,0,2,0.9,2,2c0,1.1-0.9,2-2,2V8z M8,3C7.77,3,7.57,3.09,7.4,3.22L4,6H0.98C0.43,6,0,6.45,0,7v3v3
	c0,0.55,0.44,1,0.99,1H4l3.4,2.78C7.57,16.91,7.77,17,8,17c0.55,0,1-0.45,1-1V4C9,3.45,8.55,3,8,3z"/>
</svg>
