<?xml version="1.0" encoding="utf-8"?>
<!-- Generator: Adobe Illustrator 23.0.1, SVG Export Plug-In . SVG Version: 6.00 Build 0)  -->
<svg version="1.1" id="Layer_1" xmlns="http://www.w3.org/2000/svg" xmlns:xlink="http://www.w3.org/1999/xlink" x="0px" y="0px"
	 viewBox="0 0 14 14" style="enable-background:new 0 0 14 14;width:14px;height:14px;" xml:space="preserve">
<style type="text/css">
	.st0{fill:#f4f4f4;}
</style>
<path class="st0" d="M7.7,11.9H6.3v-1.4h1.4V11.9z M9.15,6.47L8.52,7.12C8.01,7.63,7.7,8.05,7.7,9.1H6.3V8.75
	c0-0.77,0.31-1.47,0.82-1.98l0.87-0.88C8.25,5.63,8.4,5.28,8.4,4.9c0-0.77-0.63-1.4-1.4-1.4S5.6,4.13,5.6,4.9
	c0,0.39-0.31,0.7-0.7,0.7S4.2,5.29,4.2,4.9c0-1.55,1.25-2.8,2.8-2.8s2.8,1.25,2.8,2.8C9.8,5.52,9.55,6.08,9.15,6.47z"/>
</svg>
